<svg xmlns="http://www.w3.org/2000/svg" width="400" height="400"><g><path fill="#fff" d="M291.96 209.624c.435-10.432-19.084-25.151-15.616-39.466 3.473-14.316 3.038-27.783-4.771-46.606 0 0 12.581 4.894 11.278-4.804-1.302-9.695-15.181-19.892-25.591-26.379-4.679-2.915-17.505-9.206-34.676-12.888l-3.231 8.788.008-.022c.695.308 10.549 4.729 14.611 8.886l-.012.017 3.277-4.528s19.21 10.351 25.062 33.386l-5.083 1.734-.04-.129c.429 1.383 5.802 19.515-.3 39.544l-13.958-4.739c-.739 1.906-7.847 19.631-17.185 22.746l-8.805-11.645c-4.227 3.305-13.88 6.224-18.537 4.856l-.01-.425-.249-.031.259 32.092c-18.511 1.914-40.625-9.298-51.216-24.732l-11.572 8.79c-13.16-15.902-15.167-35.069-15.304-46.069h15.572c-.006-12.209 4.768-28.118 11.492-36.873l12.161 8.585-.024.03c.99-1.219 10.17-12.207 22.465-16.176l.002.005.185-.052-9.219-24.364c-8.583 1.891-17.351 4.954-26.072 9.569-70.056 37.333-34.482 110.203-12.793 127.555 21.688 17.352 11.713 52.721 0 84.721h94.181c1.303-6 .167 2.955 4.558-20.957 4.394-23.91 21.312-15.025 34.647-15.841 13.338-.813 11.226-10.085 11.062-20.494 6.508-2.929 6.508-6.021 2.166-9.761 5.643-5.205 4.773-5.211 1.737-10.311-3.036-5.098-.868-7.482-.868-7.482s9.111-1.771 10.409-6.53z"/><polygon stroke="#fff" stroke-width="13" stroke-miterlimit="10" points="198.026,6.707 18.894,69.668 44.207,309.116 199.974,394.786 351.847,309.116 381.051,69.668" fill="none"/><path fill="#fff" stroke="#fff" stroke-width="2" stroke-miterlimit="10" d="M173.004 79.344c18.309-5.281 32.246-5.51 47.741.251.575.214 1.086.456 1.514.772l3.179-7.18c-25.708-12.521-55.151-1.027-55.151-1.027l2.717 7.184"/><circle fill="#fff" stroke="#fff" stroke-width="2" stroke-miterlimit="10" cx="197.556" cy="140.25" r="14.5"/></g></svg>